<?xml version="1.0" encoding="iso-8859-1"?>
<!-- Uploaded to: SVG Repo, www.svgrepo.com, Generator: SVG Repo Mixer Tools -->
<svg height="800px" width="800px" version="1.1" id="Capa_1" xmlns="http://www.w3.org/2000/svg" xmlns:xlink="http://www.w3.org/1999/xlink" 
	 viewBox="0 0 324.244 324.244" xml:space="preserve">
<g>
	<g>
		<path style="fill:#ffff;" d="M109.303,1.207c-8.441,0-15.289,22.436-15.289,22.436c0,2.986,0.413,5.825,1.137,8.431
			c4.623-1.044,9.415-1.643,14.348-1.643s9.725,0.598,14.348,1.643c0.723-2.605,1.137-5.445,1.137-8.431
			c0,0-6.842-22.436-15.289-22.436C109.695,1.207,109.303,1.207,109.303,1.207z"/>
		<path style="fill:#ffff;" d="M204.003,95.907V95.51c0-8.441-22.436-15.289-22.436-15.289c-2.986,0-5.825,0.413-8.431,1.137
			c1.044,4.623,1.643,9.415,1.643,14.348c0,4.933-0.598,9.725-1.643,14.348c2.605,0.723,5.445,1.137,8.431,1.137
			C181.567,111.196,204.003,104.354,204.003,95.907z"/>
		<path style="fill:#ffff;" d="M95.151,159.348c-0.723,2.605-1.137,5.445-1.137,8.431c0,0,6.842,22.436,15.289,22.436h0.397
			c8.441,0,15.289-22.436,15.289-22.436c0-2.986-0.413-5.825-1.137-8.431c-4.623,1.044-9.415,1.643-14.348,1.643
			C104.566,160.985,99.774,160.387,95.151,159.348z"/>
		<path style="fill:#ffff;" d="M45.949,165.658c6.239,5.689,26.412-6.271,26.412-6.271c2.018-2.214,3.628-4.596,4.852-7.016
			c-8.414-4.814-15.654-11.427-21.191-19.336c-2.295,1.441-4.52,3.263-6.543,5.472c0,0-10.068,21.185-3.829,26.874L45.949,165.658z"
			/>
		<path style="fill:#ffff;" d="M45.949,25.765l-0.294,0.267c-6.239,5.689,3.829,26.874,3.829,26.874
			c2.018,2.214,4.242,4.036,6.543,5.472c5.537-7.908,12.776-14.522,21.191-19.336c-1.224-2.42-2.834-4.803-4.852-7.016
			C72.367,32.036,52.188,20.076,45.949,25.765z"/>
		<path style="fill:#ffff;" d="M162.976,58.383c2.295-1.441,4.52-3.263,6.543-5.472c0,0,10.068-21.185,3.829-26.874l-0.294-0.267
			c-6.244-5.695-26.418,6.266-26.418,6.266c-2.018,2.214-3.628,4.596-4.852,7.016C150.194,43.861,157.434,50.475,162.976,58.383z"/>
		<path style="fill:#ffff;" d="M173.049,165.658l0.294-0.267c6.239-5.689-3.829-26.874-3.829-26.874
			c-2.018-2.214-4.242-4.036-6.543-5.472c-5.537,7.908-12.776,14.522-21.191,19.336c1.224,2.42,2.834,4.803,4.852,7.016
			C146.637,159.386,166.811,171.347,173.049,165.658z"/>
		<path style="fill:#ffff;" d="M15.001,95.51v0.397c0,8.441,22.436,15.289,22.436,15.289c2.986,0,5.825-0.413,8.431-1.137
			c-1.044-4.623-1.643-9.415-1.643-14.348c0-4.933,0.598-9.725,1.643-14.348c-2.605-0.723-5.445-1.137-8.431-1.137
			C37.432,80.226,15.001,87.069,15.001,95.51z"/>
		<path style="fill:#ffff;" d="M152.207,129.341c5.564-7.054,9.388-15.512,10.911-24.764c0.473-2.894,0.783-5.842,0.783-8.866
			c0-3.03-0.31-5.978-0.783-8.866c-1.523-9.252-5.347-17.71-10.911-24.764c-3.688-4.672-8.11-8.724-13.119-11.982
			c-6.157-4.003-13.179-6.761-20.717-8.001c-2.894-0.473-5.842-0.783-8.866-0.783c-3.03,0-5.978,0.31-8.866,0.783
			c-7.544,1.24-14.56,3.998-20.717,8.001c-5.004,3.253-9.431,7.305-13.119,11.982c-5.564,7.054-9.388,15.512-10.911,24.764
			c-0.473,2.894-0.783,5.842-0.783,8.866c0,3.03,0.31,5.978,0.783,8.866c1.523,9.252,5.347,17.71,10.911,24.764
			c3.688,4.678,8.11,8.73,13.119,11.982c6.157,4.003,13.179,6.761,20.717,8.001c2.894,0.473,5.842,0.783,8.866,0.783
			c3.03,0,5.978-0.31,8.866-0.783c7.544-1.24,14.56-3.998,20.717-8.001C144.092,138.071,148.519,134.019,152.207,129.341z"/>
		<path style="fill:#ffff;" d="M263.131,213.179c-4.863-4.863-11.324-7.539-18.205-7.539c-5.58,0-10.9,1.768-15.3,5.037
			l-74.113,38.558l19.869,11.123l19.869,11.123l19.249,10.775l34.01,19.037l30.377,17.003l3.633,2.034h41.723l-59.264-105.3
			L263.131,213.179z"/>
		<path style="fill:#ffff;" d="M271.388,320.328l-34.01-19.037l-34.01-19.037l-13.886-7.772l-19.869-11.123l-19.869-11.123
			l-67.874-37.992c-2.29-2.29-5.292-3.437-8.295-3.437s-6.005,1.148-8.295,3.437L0,323.037h276.228L271.388,320.328z"/>
	</g>
</g>
</svg>